<svg xmlns="http://www.w3.org/2000/svg" width="80.932" height="75.839" viewBox="0 0 80.932 75.839">
  <g id="グループ_33" data-name="グループ 33" transform="translate(-51 -112)">
    <path id="Icon_metro-bubble" data-name="Icon metro-bubble" d="M43.037,3.856c-22.349,0-40.466,14.72-40.466,32.879S20.688,69.614,43.037,69.614a49.976,49.976,0,0,0,6.309-.4c8.692,8.692,19.067,10.251,29.1,10.48V77.568c-5.417-2.654-10.117-7.488-10.117-13.012a15.265,15.265,0,0,1,.171-2.268c9.152-6.028,15-15.234,15-25.553C83.5,18.577,65.386,3.856,43.037,3.856Z" transform="translate(48.429 108.144)" fill="#898ca8"/>
    <text id="SOS" transform="translate(66 155.709)" fill="#fff" font-size="23" font-family="ArialRoundedMTBold, Arial Rounded MT Bold"><tspan x="0" y="0">SOS</tspan></text>
  </g>
</svg>
