<svg xmlns="http://www.w3.org/2000/svg" width="103.937" height="76.216" viewBox="0 0 103.937 76.216">
  <g id="グループ_62" data-name="グループ 62" transform="translate(-29.997 -386)">
    <g id="グループ_61" data-name="グループ 61" transform="translate(-46 355)">
      <path id="Icon_metro-bubble" data-name="Icon metro-bubble" d="M55.093,3.856c-29.007,0-51.415,14.721-51.415,32.879,0,7.917,1.989,15.925,9.975,21.749,9.858,7.192,26.635,11.13,43,11.13,2.786,0,9.056-.582,11.724-.844,11.282,8.692,16.524,11.072,29.545,11.3v-2.3c-7.031-2.654-9.776-7.286-9.776-12.81a10.785,10.785,0,0,1,0-2.158c4.87-2.471,10.114-4.865,13.517-8.587,4.407-4.814,5.957-11.393,5.957-17.48,0-18.159-23.515-32.879-52.522-32.879Z" transform="translate(72.318 27.144)" fill="#898ca8"/>
      <text id="Hootが_きかれました_" data-name="Hootが
きかれました!" transform="translate(127.538 60.866)" fill="#fff" font-size="15" font-family="ArialRoundedMTBold, Arial Rounded MT Bold" letter-spacing="-0.005em"><tspan x="-24.913" y="0">Hoot</tspan><tspan y="0" font-family="HiraginoSans-W6, Hiragino Sans">が</tspan><tspan y="0" font-family="ArialNarrow-Bold, Arial Narrow" font-weight="700"></tspan><tspan font-family="HiraginoSans-W6, Hiragino Sans" letter-spacing="-0.045em"><tspan x="-45.322" y="16">きかれまし</tspan><tspan y="16" letter-spacing="-0.005em">た</tspan><tspan y="16" font-family="ArialNarrow-Bold, Arial Narrow" font-weight="700" letter-spacing="-0.005em">!</tspan></tspan></text>
    </g>
  </g>
</svg>
