<svg xmlns="http://www.w3.org/2000/svg" width="105.675" height="98.79" viewBox="0 0 105.675 98.79">
  <g id="グループ_57" data-name="グループ 57" transform="translate(-11.258 -122.05)">
    <path id="Icon_metro-bubble" data-name="Icon metro-bubble" d="M43.038,3.856c-22.349,0-40.467,14.721-40.467,32.879S20.688,69.615,43.038,69.615a49.978,49.978,0,0,0,6.309-.4c8.692,8.692,19.068,10.251,29.1,10.48V77.569c-5.417-2.654-10.117-7.488-10.117-13.012a15.265,15.265,0,0,1,.171-2.268c9.152-6.028,15-15.235,15-25.553,0-18.159-18.118-32.879-40.467-32.879Z" transform="translate(33.429 141.144)" fill="#cce330"/>
    <path id="Icon_material-hearing" data-name="Icon material-hearing" d="M18.756,57.159l-5.74,5.74a44.5,44.5,0,0,1,0-62.9l5.7,5.7a36.4,36.4,0,0,0,.04,51.459Z" transform="translate(59.442 122.05) rotate(50)" fill="#cce330"/>
  </g>
</svg>
