<svg xmlns="http://www.w3.org/2000/svg" width="56.593" height="80.847" viewBox="0 0 56.593 80.847">
  <path id="Icon_material-hearing" data-name="Icon material-hearing" d="M61.093,77.745a7.693,7.693,0,0,1-3.072-.606c-2.87-1.5-4.891-3.557-6.912-9.621-2.062-6.306-5.942-9.257-9.661-12.127-3.193-2.466-6.508-5.013-9.378-10.227a25.321,25.321,0,0,1-3.315-11.885,20.212,20.212,0,1,1,40.424,0h8.085a27.972,27.972,0,0,0-28.3-28.3,27.972,27.972,0,0,0-28.3,28.3,33.461,33.461,0,0,0,4.325,15.765c3.679,6.67,8,10.025,11.521,12.733,3.274,2.506,5.619,4.325,6.912,8.287,2.425,7.357,5.538,11.48,11.036,14.35a16.182,16.182,0,0,0,22.8-14.755H69.178a8.108,8.108,0,0,1-8.085,8.085ZM37.848,33.279c1.28,3.315,5.58,1.493,5.58,1.493s2.779-4.287,5.538-4.287,5.5,4.287,5.5,4.287,4.089.652,4.948-1.493C61.52,30.725,54.544,24.5,48.966,24.5S36.568,29.964,37.848,33.279Z" transform="translate(-20.669 -4.983)" fill="#c7c7c7"/>
</svg>
