<svg xmlns="http://www.w3.org/2000/svg" width="225.542" height="68.506" viewBox="0 0 225.542 68.506">
  <defs>
    <style>
      .cls-1 {
        fill: #848ccf;
      }

      .cls-2 {
        fill: #3c3c3c;
        stroke: #fff;
        stroke-width: 0.5px;
      }

      .cls-3 {
        fill: #be5683;
      }
    </style>
  </defs>
  <g id="グループ_14" data-name="グループ 14" transform="translate(-109.496 -89.917)">
    <g id="グループ_13" data-name="グループ 13" transform="translate(167.226 89.918)">
      <g id="グループ_11" data-name="グループ 11" transform="translate(65.094 20.222)">
        <circle id="楕円形_236" data-name="楕円形 236" class="cls-1" cx="23.5" cy="23.5" r="23.5" transform="translate(-0.32 0.284)"/>
        <circle id="楕円形_237" data-name="楕円形 237" class="cls-2" cx="16.5" cy="16.5" r="16.5" transform="translate(6.68 7.283)"/>
      </g>
      <path id="多角形_1" data-name="多角形 1" class="cls-3" d="M5.545,3.086a1,1,0,0,1,1.911,0L12.6,19.7a1,1,0,0,1-.955,1.3H1.356A1,1,0,0,1,.4,19.7Z" transform="translate(63.774 68.505) rotate(180)"/>
      <path id="多角形_2" data-name="多角形 2" class="cls-3" d="M6.059,7.714a1,1,0,0,1,1.984,0l5.914,46a1,1,0,0,1-.992,1.128H1.137A1,1,0,0,1,.145,53.71Z" transform="matrix(-0.375, -0.927, 0.927, -0.375, 61.687, 33.617)"/>
      <g id="グループ_12" data-name="グループ 12" transform="translate(0.515 20.222)">
        <circle id="楕円形_236-2" data-name="楕円形 236" class="cls-1" cx="23.5" cy="23.5" r="23.5" transform="translate(0.26 0.284)"/>
        <circle id="楕円形_237-2" data-name="楕円形 237" class="cls-2" cx="16.5" cy="16.5" r="16.5" transform="translate(7.26 7.284)"/>
      </g>
      <path id="多角形_3" data-name="多角形 3" class="cls-3" d="M6.059,7.714a1,1,0,0,1,1.984,0l5.914,46a1,1,0,0,1-.992,1.128H1.137A1,1,0,0,1,.145,53.71Z" transform="translate(56.127 20.542) rotate(112)"/>
    </g>
    <path id="合体_2" data-name="合体 2" class="cls-1" d="M47.118,67.371s-6.135-7.692-11.135-24.537q-.333-1.12-.649-2.289H22.485q.317,1.17.656,2.289C28.25,59.679,35.728,67.371,35.728,67.371H18.567S12.431,59.679,7.432,42.834,0,0,0,0H16.728a271.726,271.726,0,0,0,3.291,29.23H32.752C29.933,14.752,28.552,0,28.552,0H45.28s1.306,25.99,6.412,42.834S64.28,67.371,64.28,67.371Z" transform="translate(109.496 89.917)"/>
    <path id="合体_3" data-name="合体 3" class="cls-1" d="M1.32,62.667C-2.714,55.6,3.114,41.575,10.51,28.579h-6.9V19.706h12.26C22.914,8.628,29.641,0,29.641,0H51.156S42.282,9.051,33.273,19.706H51.927v8.872H26.089c-7.125,9.268-12.656,18.235-11.338,22.427,3.307,10.5,27.559-4.29,27.559-4.29V58.032S25.425,68.4,12.788,68.4C7.945,68.4,3.726,66.88,1.32,62.667Z" transform="translate(283.111 89.917)"/>
  </g>
</svg>
