<svg xmlns="http://www.w3.org/2000/svg" width="333.456" height="1133.103" viewBox="0 0 333.456 1133.103">
  <g id="グループ_27" data-name="グループ 27" transform="translate(-42.385)">
    <path id="パス_56" data-name="パス 56" d="M0,0H76V1133H2l-2-73.017L4.144,923.564,0,817.64l2-81.187L0,643.838,4.144,450.345,0,310.391,4.144,209.3Z" transform="translate(299)" fill="#9b7964"/>
    <g id="グループ_17" data-name="グループ 17" transform="translate(0 49.673)">
      <path id="パス_57" data-name="パス 57" d="M20.589,2.873,22.9,117.458l8.036,91.855L41,266l-20.877,1.826-5-57.13L8.7,79.863,16.969,9.295Z" transform="translate(41.473 190.671) rotate(-83)" fill="#9b7964"/>
      <path id="パス_58" data-name="パス 58" d="M9.772-8.639l1.359,32.088L10.048,39.087,11,51,2.784,57.067l2.984-29.9L4.7,3.907Z" transform="translate(76.594 213.755) rotate(-112)" fill="#9b7964"/>
    </g>
    <g id="グループ_18" data-name="グループ 18" transform="translate(0 249.673)">
      <path id="パス_57-2" data-name="パス 57" d="M20.589,2.873l.3,38.377-4.139,40.1,6.143,36.1,8.036,91.855L41,266l-20.877,1.826-5-57.13L8.7,79.863,16.969,9.295Z" transform="translate(41.473 190.671) rotate(-83)" fill="#9b7964"/>
    </g>
    <g id="グループ_20" data-name="グループ 20" transform="translate(2.615 449.673)">
      <path id="パス_57-3" data-name="パス 57" d="M20.589,2.873,22.9,117.458l8.036,91.855L41,266l-20.877,1.826-5-57.13L12.939,79.654l4.03-70.359Z" transform="translate(41.473 190.671) rotate(-83)" fill="#9b7964"/>
      <path id="パス_58-2" data-name="パス 58" d="M23.105-15.747,12.711,7.143l-1.58,16.307L10.048,39.087,11,51,2.784,57.067,4.9,44.956l1.125-13.4.756-14.3L7.7,3.735,16.99-11.141Z" transform="translate(84.594 211.755) rotate(-112)" fill="#9b7964"/>
      <path id="パス_59" data-name="パス 59" d="M2.5,0,3.733,5.115l.412,17.422-3.753,6.5L.514,6.707Z" transform="translate(69.809 215.108) rotate(-120)" fill="#9b7964"/>
    </g>
    <g id="グループ_22" data-name="グループ 22" transform="translate(-3 649.673)">
      <path id="パス_57-4" data-name="パス 57" d="M20.589,2.873,22.9,117.458l8.036,91.855L41,266l-20.877,1.826-5-57.13L8.7,79.863,16.969,9.295Z" transform="translate(41.473 190.671) rotate(-83)" fill="#9b7964"/>
      <path id="パス_58-3" data-name="パス 58" d="M9.772-8.639l1.359,32.088L10.048,39.087,11,51,2.784,57.067l2.984-29.9L4.7,3.907Z" transform="translate(76.594 213.755) rotate(-112)" fill="#9b7964"/>
    </g>
    <g id="グループ_24" data-name="グループ 24" transform="translate(-3 849.673)">
      <path id="パス_57-5" data-name="パス 57" d="M20.589,2.873l.3,38.377-4.139,40.1,6.143,36.1,8.036,91.855L41,266l-20.877,1.826-5-57.13L8.7,79.863,16.969,9.295Z" transform="translate(41.473 190.671) rotate(-83)" fill="#9b7964"/>
    </g>
    <path id="パス_60" data-name="パス 60" d="M0,0V91.54l8,56.381V215" transform="translate(314.5 0.5)" fill="none" stroke="#76645a" stroke-width="1"/>
    <path id="パス_65" data-name="パス 65" d="M0,0-2,91.375,0,172" transform="translate(337.5 172.5)" fill="none" stroke="#76645a" stroke-width="1"/>
    <path id="パス_64" data-name="パス 64" d="M2,0-3.32,112.235,0,294" transform="translate(349.5 130.5)" fill="none" stroke="#76645a" stroke-width="1"/>
    <path id="パス_67" data-name="パス 67" d="M0,0,2.918,120.254,0,147.736" transform="translate(360.5 305.5)" fill="none" stroke="#76645a" stroke-width="1"/>
    <path id="パス_68" data-name="パス 68" d="M0,0V73.391L-9.9,118.08" transform="translate(337.5 365.5)" fill="none" stroke="#76645a" stroke-width="1"/>
    <path id="パス_66" data-name="パス 66" d="M2,0S-5.105,32.07-5.605,83.07,0,204,0,204" transform="translate(320.5 232.5)" fill="none" stroke="#76645a" stroke-width="1"/>
    <path id="パス_69" data-name="パス 69" d="M8,0S2.75,18.84,1,64.063-.75,142.722,1,180.89c.486,10.611,8.066,24.322,8.066,24.322L8,225.708" transform="translate(312.5 454.5)" fill="none" stroke="#76645a" stroke-width="1"/>
    <path id="パス_70" data-name="パス 70" d="M-10.634.044s-2.789,50.941,0,96.976A708.064,708.064,0,0,0,.522,184.184L0,271" transform="translate(337.5 498.5)" fill="none" stroke="#76645a" stroke-width="1"/>
    <path id="パス_71" data-name="パス 71" d="M-7.079,73.354,0,95.4V124" transform="translate(357.5 588.5)" fill="none" stroke="#76645a" stroke-width="1"/>
    <path id="パス_78" data-name="パス 78" d="M0,0-2.5,49.624v62.789L-6.9,161.663" transform="translate(357.5 727.5)" fill="none" stroke="#76645a" stroke-width="1"/>
    <path id="パス_83" data-name="パス 83" d="M0,0,4,20.717V82.1L5,150" transform="translate(363.5 668.5)" fill="none" stroke="#76645a" stroke-width="1"/>
    <path id="パス_73" data-name="パス 73" d="M5.917-3.938,0,34.031l3.44,82.315L0,198" transform="translate(314.5 698.5)" fill="none" stroke="#76645a" stroke-width="1"/>
    <path id="パス_61" data-name="パス 61" d="M0,145-6.478,78.8,2,0" transform="translate(337.5 13.5)" fill="none" stroke="#76645a" stroke-width="1"/>
    <path id="パス_62" data-name="パス 62" d="M0,88V45.483L16,0" transform="translate(351.5 34.5)" fill="none" stroke="#76645a" stroke-width="1"/>
    <path id="パス_63" data-name="パス 63" d="M0,200V97.689L6,0" transform="translate(361.5 86.5)" fill="none" stroke="#76645a" stroke-width="1"/>
    <path id="パス_72" data-name="パス 72" d="M1,0S-13.512,45.314-13.762,97.064,0,207,0,207" transform="translate(348.5 448.5)" fill="none" stroke="#76645a" stroke-width="1"/>
    <path id="パス_77" data-name="パス 77" d="M2-27.786S3.3-5.633,2,11.082-1.095,23.6-3.209,39.071-6.458,72.955-6.458,72.955V120.5" transform="translate(334.5 818.5)" fill="none" stroke="#76645a" stroke-width="1"/>
    <path id="パス_80" data-name="パス 80" d="M0,0-2.725,127.1,2,177.349,0,210.392" transform="translate(312.5 916.5)" fill="none" stroke="#76645a" stroke-width="1"/>
    <path id="パス_81" data-name="パス 81" d="M0-12.252l2,31.27L-4.472,81.574,2,129.9,0,174.5" transform="translate(328.5 958.5)" fill="none" stroke="#76645a" stroke-width="1"/>
    <path id="パス_79" data-name="パス 79" d="M-6.4-2.179s4.541,12.13,3.641,30.712S-9.994,72.15-9.994,72.15" transform="translate(357.5 905.5)" fill="none" stroke="#76645a" stroke-width="1"/>
    <path id="パス_82" data-name="パス 82" d="M0,0-3.18,54.737,7.188,115.948,3,144.5" transform="translate(345.5 988.5)" fill="none" stroke="#76645a" stroke-width="1"/>
    <path id="パス_74" data-name="パス 74" d="M2235,6331.507c-1.918-3.754-19.31-.592-25.747,27.389s0,84.537,0,84.537,4.958,36.351,11.395,51.852S2235,6505.436,2235,6505.436Z" transform="translate(-1860 -5857)" fill="none" stroke="#76645a" stroke-width="1"/>
    <path id="パス_75" data-name="パス 75" d="M2224.233,6331.278c-1.2-3.086-12.043-.487-16.057,22.515-2.22,12.72-1.317,48.182,0,69.493,0,0,3.092,29.883,7.106,42.625s8.951,8.345,8.951,8.345Z" transform="translate(-1848.892 -5842.662)" fill="none" stroke="#76645a" stroke-width="1"/>
    <path id="パス_76" data-name="パス 76" d="M2229.588,6378.03c2.711-6.966,5.073,0,5.073,0V6443.8s-.289,26.12-3,16.643-7.328-33.948-7.846-54.552S2226.877,6385,2229.588,6378.03Z" transform="translate(-1860 -5857)" fill="none" stroke="#76645a" stroke-width="1"/>
    <path id="パス_84" data-name="パス 84" d="M0,0-2.436,68.216,0,97" transform="translate(368.5 826.5)" fill="none" stroke="#76645a" stroke-width="1"/>
    <path id="パス_85" data-name="パス 85" d="M8,0,0,55l-2.835,58.365,7.168,32.983" transform="translate(360.5 930.5)" fill="none" stroke="#76645a" stroke-width="1"/>
    <path id="パス_86" data-name="パス 86" d="M7-4.221v31.27L3.345,44.5" transform="translate(360.5 1088.5)" fill="none" stroke="#76645a" stroke-width="1"/>
  </g>
</svg>
